<svg xmlns="http://www.w3.org/2000/svg" viewBox="0 0 256.77 396.02"><g id="Layer_2" data-name="Layer 2"><g id="Layer_1-2" data-name="Layer 1"><path d="M36.32,39.16.54.19c10.4,0,17.08,0,23.76,0C54.13.27,84-.5,113.78.6c83.58,3.11,149.08,80.29,142.54,158.8-55.11,54.84-109.95,109.43-165.78,165H43.41L217.23,152.08c2.37-51.59-40-109.15-101.48-113-26.55-1.67-53.28-.32-79.93-.34Z"/><path d="M35.82,38.72q.59,69.5,1.17,139c0,6.83,0,13.66,0,21.5H60l42.05-45.82H151c-26.73,26.62-53.9,53.67-84.12,83.78H0V72.67L36.32,39.16Z"/><path d="M28.88,396V359.84c61.45-1.68,122.65-.28,180-.78l39.49,37Z"/><path d="M188.46,324.36H145.84L255.67,215.82v42.59Z"/><path d="M101.74,98.88c0,10.52-9.06,19.81-19.22,19.62-9.73-.18-19.38-10.41-19-20.17a19,19,0,0,1,18.61-18C93.36,80,101.7,87.85,101.74,98.88Z"/></g></g></svg>
